<svg id="组_927" data-name="组 927" xmlns="http://www.w3.org/2000/svg" viewBox="0 0 42.999 46.319">
  <path id="路径_1686" data-name="路径 1686" d="M4660.587,4199.578c-.043-5.247-.011-17.816-.19-19.218a4.79,4.79,0,0,0-1.814-3.263,15.287,15.287,0,0,0-7.964-1.956c-7.187.122-8.9.7-12.416.827-2.069.071-1.956-1.593-1.49-2.187,1.2-1.523,5.029-2.986,6.884-3.529a56.592,56.592,0,0,1,10.217-1.544c3.331-.133,9.813.247,13.175,2.05.977.524,1.577,1.028,1.127,2.081-.385.683-.041,1.366.125,2.085a23.861,23.861,0,0,1,.4,4.292c.044,2.033-.6,18.514.274,25,.178,1.313.131,3.375,2.438,5.126,2.5,1.9,7.171.771,7.328.767a.65.65,0,0,1,.721.675,2.641,2.641,0,0,1-.717,1.843,7.633,7.633,0,0,1-4.311,2.2,21.382,21.382,0,0,1-5.381,0c-4.808-.538-7.017-3.292-7.812-5.634C4660.4,4206.9,4660.607,4202,4660.587,4199.578Z" transform="translate(-4636.404 -4168.684)" fill="gray"/>
  <path id="路径_1687" data-name="路径 1687" d="M4636.529,4204.509a10.4,10.4,0,0,1,.287-2.924,1.429,1.429,0,0,1,1.953-.829,6.936,6.936,0,0,1,3.7,4.631,39.5,39.5,0,0,1,0,4.916c.056,1.5.282,3.873.288,5.432,0,.742.376,2.366-.951,3.213a4.737,4.737,0,0,1-3.242.084c-.712-.357-1.055-.69-1.58-2-.626-1.559-.6-2.758-.58-5.595C4636.417,4208.891,4636.563,4206.989,4636.529,4204.509Z" transform="translate(-4636.396 -4175.425)" fill="gray"/>
  <path id="路径_1688" data-name="路径 1688" d="M4657.4,4195.2a1.256,1.256,0,0,1-.923,1.185c-.269.059-.6.1-1.285.246-.032.007-.582.149-.614.16-.207.072-.431.12-.641.183-.051.017-.1.032-.156.047l-.16.046c-.211.059-.425.115-.639.166l-.167.038-.209.047-.048.009c-.2.042-.4.081-.607.115l-.1.016c-.071.013-.142.024-.213.033-.142.022-.285.042-.429.059-.092.012-.185.023-.277.033q-.187.02-.376.035c-.107.01-.214.017-.322.024s-.2.012-.3.016l-.131.005c-.07,0-.139.006-.207.006l-.135,0c-.094,0-.188,0-.283,0l-.284,0-.135,0c-.068,0-.138,0-.207-.006l-.132-.006c-.1,0-.2-.01-.3-.017s-.214-.015-.322-.024c-.125-.01-.248-.021-.371-.035l-.286-.033c-.14-.018-.279-.037-.418-.059-.074-.01-.147-.022-.221-.036-.033,0-.064-.009-.1-.015-.205-.036-.407-.073-.607-.117l-.048-.01c-.07-.016-.141-.031-.209-.047s-.111-.025-.167-.039c-.214-.051-.428-.107-.639-.167l-.16-.046-.155-.047q-.3-.091-.588-.192l-.229-.082q-.311-.114-.618-.24c-.051-.02-.1-.042-.155-.064-.031-.014-.063-.026-.094-.04l-.159-.07c-.082-.036-.161-.073-.241-.109q-.148-.069-.3-.142c-.078-.037-.156-.077-.232-.116-.117-.058-.232-.12-.346-.182a16,16,0,0,1-1.5-.917c-.364-.233-.711-.452-1.039-.673a1.123,1.123,0,0,1-.1-1.868,16.194,16.194,0,0,1,7.646-3.471,12.277,12.277,0,0,1,5.053.038,7.657,7.657,0,0,1,4.978,3.355A6.081,6.081,0,0,1,4657.4,4195.2Z" transform="translate(-4636.816 -4172.877)" fill="gray"/>
</svg>
